Coordinates
version=1
nRows=8
nColumns=33
inDegrees=yes

Units are S.I. units (second, meters, Newtons, ...)
Angles are in degrees.

endheader
time	ground_thorax_rot_x	ground_thorax_rot_y	ground_thorax_rot_z	ground_thorax_tx	ground_thorax_ty	ground_thorax_tz	clav_prot_r	clav_elev_r	scapula_abduction_r	scapula_elevation_r	scapula_upward_rot_r	scapula_winging_r	shoulder_elv_r	plane_of_elev_r	axial_rot_r	elbow_flexion_r	pro_sup_r	wrist_flex_r	wrist_dev_r	clav_prot_l	clav_elev_l	scapula_abduction_l	scapula_elevation_l	scapula_upward_rot_l	scapula_winging_l	shoulder_elv_l	plane_of_elev_l	axial_rot_l	elbow_flexion_l	pro_sup_l	wrist_flex_l	wrist_dev_l
      6.05000000	     39.55851324	     11.03764391	     13.82463259	   -248.09038047	    848.95302637	      6.34351067	     12.31207714	     38.15038854	     37.08108251	     45.00000000	    -36.94843616	   1709.41076110	  -2811.46087221	     33.42560590	     47.67130419	   1812.01873350	     10.84671489	     19.33721046	      6.13759418	      8.26928294	    -45.00000000	    -35.73431899	     45.00000000	    -45.00000000	  -2418.76562354	    437.24051710	     19.37060326	    -65.03955053	    382.53423675	    143.68145657	     -0.50579661	     -9.93496346
      6.06000000	     39.48363066	     11.14208007	     13.97195807	   -248.07051518	    848.75151554	      6.38607746	     12.25513845	     38.04255948	     36.88342932	     45.00000000	    -37.13654930	   1709.47528293	  -2811.49304310	     33.59361497	     47.81698380	   1811.85025553	     10.82864417	     19.21201023	      5.89555938	      7.95502462	    -45.00000000	    -35.71517003	     45.00000000	    -45.00000000	  -2418.81899710	    437.23971439	     19.29794554	    -64.99818013	    382.34107261	    143.64985210	     -0.23058931	    -10.00774568
      6.07000000	     39.50478294	     11.05147202	     13.96072897	   -247.97423480	    848.52490322	      6.42140953	     12.27043558	     38.10870014	     37.15433800	     45.00000000	    -37.06239635	   1709.42884349	  -2811.53195967	     33.33789701	     47.68919048	   1812.01409264	     10.77514954	     19.30735650	      6.09702771	      8.20176813	    -45.00000000	    -35.62909546	     45.00000000	    -45.00000000	  -2418.75198332	    437.19605301	     19.38021440	    -65.11074579	    382.46641000	    143.57805260	     -0.41340288	     -9.98797044
      6.08000000	     39.39512103	     11.18346536	     14.01907843	   -247.80187292	    848.28930764	      6.45179716	     12.41951445	     38.04325853	     36.61775002	     45.00000000	    -37.19412876	   1709.51192859	  -2811.47902017	     33.85298341	     47.79182189	   1811.89994063	     10.68968908	     19.20783804	      5.93139803	      7.93897609	    -45.00000000	    -35.87474352	     45.00000000	    -45.00000000	  -2418.85960902	    437.23803222	     19.20087393	    -64.92747551	    382.43890442	    143.51706251	     -0.16094714	     -9.97499047
      6.09000000	     39.48479806	     11.00340870	     13.92201991	   -247.55368145	    848.03854797	      6.47915079	     12.28069906	     38.07361333	     37.08121580	     45.00000000	    -37.11138204	   1709.48087668	  -2811.54305043	     33.48976314	     47.61835271	   1812.00129759	     10.56419263	     19.28797903	      6.09364522	      8.18178325	    -45.00000000	    -35.65140186	     45.00000000	    -45.00000000	  -2418.83930821	    437.12463646	     19.41095219	    -65.02080828	    382.45031800	    143.40315733	     -0.35855073	    -10.03255395
      6.10000000	     39.35673849	     11.21749589	     14.10371871	   -247.24404486	    847.78496680	      6.50311273	     12.33579564	     38.06525060	     36.93393676	     45.00000000	    -37.23217802	   1709.55668015	  -2811.52123988	     33.47676523	     47.63836316	   1812.03785288	     10.43108786	     19.27260217	      6.04223716	      8.03216251	    -45.00000000	    -35.83078134	     45.00000000	    -45.00000000	  -2418.84197397	    437.18759724	     19.26409808	    -64.76320976	    382.57132789	    143.30622910	     -0.18280734	     -9.96722544
      6.11000000	     39.46469319	     11.03603916	     13.97718815	   -246.88639822	    847.53469433	      6.52411520	     12.28489090	     38.02830923	     37.10780693	     45.00000000	    -37.12506558	   1709.49056168	  -2811.58283868	     33.50099040	     47.48061912	   1812.05945868	     10.28053270	     19.30011861	      6.08612189	      8.21040142	    -45.00000000	    -35.67233115	     45.00000000	    -45.00000000	  -2418.87710035	    437.12001552	     19.47850515	    -64.82210364	    382.52970404	    143.18692705	     -0.32735484	    -10.04320409
      6.12000000	     39.31912460	     11.25146302	     14.18254239	   -246.46268907	    847.27435958	      6.54371616	     12.37036446	     38.10054269	     36.94748290	     45.00000000	    -37.19751647	   1709.58856079	  -2811.51579967	     33.50770643	     47.51467095	   1812.06724317	     10.14832593	     19.31189943	      6.12793784	      8.04225315	    -45.00000000	    -35.84948661	     45.00000000	    -45.00000000	  -2418.91746116	    437.16556555	     19.33011392	    -64.50617131	    382.55567363	    143.09365476	     -0.16800339	     -9.97147083
